<svg version="1.1" xmlns="http://www.w3.org/2000/svg" width="500" height="150">
<path d="M0 0 C1.65 0 3.3 0 5 0 C5.62854739 6.91402133 3.33047673 12.55986539 1 19 C0.41027628 20.68527741 -0.17381646 22.3725454 -0.75 24.0625 C-0.99234375 24.75472656 -1.2346875 25.44695312 -1.484375 26.16015625 C-2.1349287 28.16299493 -2.1349287 28.16299493 -2 31 C1.24050867 28.17762148 2.67495711 26.33390526 3 22 C2.63143136 19.76832815 2.63143136 19.76832815 2 18 C5 16 5 16 7.1875 16.375 C7.785625 16.58125 8.38375 16.7875 9 17 C9 17.99 9 18.98 9 20 C12.04096192 19.08661708 12.04096192 19.08661708 15 17 C15.95374401 14.08778164 16.50007034 11.79371153 16.875 8.8125 C17.04902344 7.68811523 17.04902344 7.68811523 17.2265625 6.54101562 C17.50837089 4.69751907 17.75742942 2.8490687 18 1 C20.31 1 22.62 1 25 1 C24.44854729 6.23880078 23.57077907 10.97350697 22 16 C22.33 15.67 22.66 15.34 23 15 C25.33297433 14.95907063 27.66705225 14.95758277 30 15 C31.38766322 21.05525768 30.49118146 24.32010626 28 30 C31.9949847 28.2878637 33.56177786 26.30357639 35.5 22.5625 C37.49474487 18.7470067 39.14084353 16.16489265 43 14 C46.3125 13.75 46.3125 13.75 49 14 C51.10275161 17.39985126 51.12715391 19.6946 50.6875 23.625 C50.58824219 24.58664063 50.48898438 25.54828125 50.38671875 26.5390625 C50 29 50 29 49 31 C54.78467036 26.96418347 57.19258771 22.39742182 60 16 C61.134375 16.020625 62.26875 16.04125 63.4375 16.0625 C66.81575674 16.41577477 66.81575674 16.41577477 68 15 C70.4375 14.75 70.4375 14.75 73 15 C73.99 16.485 73.99 16.485 75 18 C75.556875 17.505 76.11375 17.01 76.6875 16.5 C79.39516153 14.74367901 80.83379087 14.65770712 84 15 C85.5516502 16.5516502 85.1694916 18.03729761 85.1875 20.1875 C85.15596429 24.13577146 84.51112262 27.31663861 83 31 C84.94999129 30.80528889 84.94999129 30.80528889 87 30 C88.12516085 28.16715557 88.12516085 28.16715557 89 26 C90.4375 23.75 90.4375 23.75 92 22 C92.99 22 93.98 22 95 22 C94.72389332 26.55576016 92.71267038 29.20800433 89.75390625 32.48046875 C87.06056762 34.81389576 84.47407349 35.47561155 81 36 C80.01 35.67 79.02 35.34 78 35 C76.40210649 30.04653013 77.71693186 25.86717585 79 21 C74.36231469 24.6438956 72.92630075 29.63094897 71 35 C69.35 35 67.7 35 66 35 C66.144375 34.32453125 66.28875 33.6490625 66.4375 32.953125 C66.7159375 31.61507812 66.7159375 31.61507812 67 30.25 C67.2784375 28.92742187 67.2784375 28.92742187 67.5625 27.578125 C68.11153675 24.77856035 68.11153675 24.77856035 68 21 C65.22142628 23.39751218 64.14037252 25.70749783 62.875 29.125 C61.08333333 33.91666667 61.08333333 33.91666667 60 35 C58.33382885 35.04063832 56.66611905 35.042721 55 35 C54.67 34.34 54.34 33.68 54 33 C53.01 33.99 53.01 33.99 52 35 C48.875 35.125 48.875 35.125 46 35 C46 34.34 46 33.68 46 33 C45.46375 33.33 44.9275 33.66 44.375 34 C41.37065456 35.26498755 39.23232558 35.34386442 36 35 C34.125 33.5 34.125 33.5 33 32 C32.443125 32.495 31.88625 32.99 31.3125 33.5 C28.61837017 35.24754367 27.14624993 35.26218749 24 35 C21.72522323 31.46145836 22.00917294 29.29052627 22.875 25.25 C23.07867187 24.26515625 23.28234375 23.2803125 23.4921875 22.265625 C23.65976563 21.51796875 23.82734375 20.7703125 24 20 C20.53898257 23.00336223 19.30647436 25.31280768 18.25 29.75 C17.88648438 31.22726563 17.88648438 31.22726563 17.515625 32.734375 C17.34546875 33.48203125 17.1753125 34.2296875 17 35 C15.35 35 13.7 35 12 35 C12.14230808 33.58297487 12.28900746 32.1663904 12.4375 30.75 C12.55931641 29.56664062 12.55931641 29.56664062 12.68359375 28.359375 C12.97634993 26.17635361 13.42064419 24.1226818 14 22 C12.35 22.33 10.7 22.66 9 23 C8.95875 23.680625 8.9175 24.36125 8.875 25.0625 C7.61878075 29.27980747 5.44939901 32.25738208 2 35 C-1.6875 35.625 -1.6875 35.625 -5 35 C-6.9375 33.5 -6.9375 33.5 -8 32 C-8.8353125 32.7425 -8.8353125 32.7425 -9.6875 33.5 C-12.4242244 35.27517259 -13.80037672 35.24612487 -17 35 C-18.64620877 35 -20.29372486 35.01598905 -21.9375 35.10546875 C-27.56115108 35.32913669 -27.56115108 35.32913669 -30 33.5 C-30.33 33.005 -30.66 32.51 -31 32 C-31.721875 32.495 -32.44375 32.99 -33.1875 33.5 C-36.15792654 35.08422749 -37.6987658 35.3668038 -41 35 C-42 34 -42 34 -42.125 30.875 C-42.00560606 27.17378788 -41.59617783 23.65158923 -41 20 C-45.27495594 24.42236821 -46.51298598 29.19839226 -48 35 C-49.65 34.67 -51.3 34.34 -53 34 C-51.6817347 26.38035196 -50.11994589 18.84518792 -48.375 11.3125 C-48.14554687 10.31283203 -47.91609375 9.31316406 -47.6796875 8.28320312 C-47.12200267 5.85495042 -46.56208359 3.42723754 -46 1 C-44.02 1 -42.04 1 -40 1 C-40.4452885 6.27315333 -41.08373163 11.01770224 -43 16 C-42.34 15.67 -41.68 15.34 -41 15 C-37.9375 14.875 -37.9375 14.875 -35 15 C-34 16 -34 16 -33.8125 19.125 C-34.00834448 23.17245263 -34.75145036 26.17631673 -36 30 C-31.22734315 27.03321331 -30.03701593 24.10823683 -28.578125 18.92578125 C-28 17 -28 17 -27 16 C-25.00041636 15.95919217 -22.99954746 15.95745644 -21 16 C-21.2165625 16.67546875 -21.433125 17.3509375 -21.65625 18.046875 C-21.9346875 18.93890625 -22.213125 19.8309375 -22.5 20.75 C-22.7784375 21.63171875 -23.056875 22.5134375 -23.34375 23.421875 C-24.16445285 26.20267529 -24.16445285 26.20267529 -24 30 C-22.68 29.67 -21.36 29.34 -20 29 C-19.89042969 28.24074219 -19.78085938 27.48148438 -19.66796875 26.69921875 C-19.50941406 25.70535156 -19.35085937 24.71148437 -19.1875 23.6875 C-19.03667969 22.70136719 -18.88585937 21.71523437 -18.73046875 20.69921875 C-17.95790394 17.84444718 -17.39322702 16.69785839 -15 15 C-14.01 15 -13.02 15 -12 15 C-11.90961901 20.15171623 -12.15318867 24.91913204 -13 30 C-7.89251771 25.8234802 -6.75872792 21.89159353 -5.375 15.5625 C-4.09752987 9.98219975 -2.83762469 5.04375487 0 0 Z M43 19 C40.01485372 23.10457614 39.7045561 25.97745369 40 31 C42.5841005 29.45198044 42.5841005 29.45198044 45 27 C45.89055736 23.35817665 45.89055736 23.35817665 46 20 C45.01 19.67 44.02 19.34 43 19 Z " fill="#162752" transform="translate(174,46)"/>
<path d="M0 0 C2.31 0 4.62 0 7 0 C6.855625 0.75925781 6.71125 1.51851562 6.5625 2.30078125 C6.2840625 3.79158203 6.2840625 3.79158203 6 5.3125 C5.7215625 6.79169922 5.7215625 6.79169922 5.4375 8.30078125 C4.92000204 11.03781805 4.92000204 11.03781805 5 14 C5.94875 13.938125 6.8975 13.87625 7.875 13.8125 C8.90625 13.874375 9.9375 13.93625 11 14 C13 17 13 17 12.79296875 19.15625 C12.59316406 19.9296875 12.39335937 20.703125 12.1875 21.5 C11.89939453 22.66015625 11.89939453 22.66015625 11.60546875 23.84375 C11.11881701 25.57685815 10.56925335 27.29223995 10 29 C13.35433831 26.6998823 15.46409459 24.46427079 17.5 21 C19.57926458 17.52808157 21.43303786 15.08797784 25 13 C28.3125 12.75 28.3125 12.75 31 13 C32.83166003 16.08785599 33.19090024 17.95800315 32.6875 21.5 C32.58824219 22.2528125 32.48898437 23.005625 32.38671875 23.78125 C32.01948342 25.88821634 31.54942434 27.93378882 31 30 C37.16878918 24.21949561 37.16878918 24.21949561 41 16.875 C42.13092356 13.62359477 42.93834431 12.53082785 46 11 C48.25 11.3125 48.25 11.3125 50 12 C49.773125 12.845625 49.54625 13.69125 49.3125 14.5625 C48.92359078 18.84050146 50.2425356 21.13357833 52 25 C52.5 27.625 52.5 27.625 52 30 C49.50115585 33.30729372 48.05629585 34.80598648 43.9375 35.5625 C40.4225847 34.88943111 39.22386372 33.73706304 37 31 C36.443125 31.7425 36.443125 31.7425 35.875 32.5 C33.20839115 34.63328708 31.32106337 34.35330461 28 34 C27.34 33.34 26.68 32.68 26 32 C25.01 32.66 24.02 33.32 23 34 C19.9375 34.3125 19.9375 34.3125 17 34 C16.34 33.01 15.68 32.02 15 31 C14.46375 31.495 13.9275 31.99 13.375 32.5 C10.40641555 34.37489544 8.44687573 34.23501425 5 34 C3.5997208 28.53891111 4.57294366 24.30723432 6 19 C2.53898257 22.00336223 1.30647436 24.31280768 0.25 28.75 C0.00765625 29.73484375 -0.2346875 30.7196875 -0.484375 31.734375 C-0.65453125 32.48203125 -0.8246875 33.2296875 -1 34 C-2.65 34 -4.3 34 -6 34 C-6.33 33.34 -6.66 32.68 -7 32 C-7.66 32.66 -8.32 33.32 -9 34 C-12 34.25 -12 34.25 -15 34 C-15.66 33.34 -16.32 32.68 -17 32 C-17.99 32.66 -18.98 33.32 -20 34 C-23.0625 34.3125 -23.0625 34.3125 -26 34 C-28.27275191 30.59087214 -28.16411618 29.01968976 -27.5390625 25.05859375 C-26.14294238 19.72703359 -22.56104436 15.89236959 -18 13 C-15.1875 12.75 -15.1875 12.75 -13 13 C-12.67 14.32 -12.34 15.64 -12 17 C-11.34 17 -10.68 17 -10 17 C-10.51958285 21.37934119 -11.05675742 25.68803391 -12 30 C-5.32006668 23.68114415 -3.41834558 18.52902335 -1.8125 9.6875 C-1.63525391 8.75615234 -1.45800781 7.82480469 -1.27539062 6.86523438 C-0.84146405 4.57832405 -0.4166442 2.29011076 0 0 Z M-18 18 C-21.14958831 21.42346555 -21.56179109 24.44262737 -22 29 C-20.06890419 29.04289755 -20.06890419 29.04289755 -18 28 C-15.73562936 23.71000595 -15.73562936 23.71000595 -15 19 C-15.99 18.67 -16.98 18.34 -18 18 Z M25 18 C24.32591692 19.26691507 23.66099503 20.53870749 23 21.8125 C22.62875 22.52019531 22.2575 23.22789063 21.875 23.95703125 C20.80314642 26.08920729 20.80314642 26.08920729 21 29 C23.86724686 28.42655063 24.8614515 28.1385485 27 26 C27.40047444 23.67724823 27.7397104 21.34260643 28 19 C27.01 18.67 26.02 18.34 25 18 Z M43 22 C41.3553326 24.46326712 41.3553326 24.46326712 40 27 C41.32 27 42.64 27 44 27 C44.33 28.32 44.66 29.64 45 31 C45.66 30.67 46.32 30.34 47 30 C46.47731534 27.23723823 45.89130413 24.6739124 45 22 C44.34 22 43.68 22 43 22 Z " fill="#162853" transform="translate(328,47)"/>
<path d="M0 0 C1 1 1 1 1.3125 4.1875 C0.9427009 8.69904907 -0.14808562 10.53145549 -3 14 C-4.20849609 14.82757813 -4.20849609 14.82757813 -5.44140625 15.671875 C-8.82322006 18.74906741 -9.82313377 21.80107962 -11.25 26.0625 C-11.50523437 26.78244141 -11.76046875 27.50238281 -12.0234375 28.24414062 C-13.04927506 31.15158022 -14.02505531 34.07516592 -15 37 C-12.32333988 38.75012392 -11.18073883 39.02213128 -7.9375 38.625 C-6.968125 38.41875 -5.99875 38.2125 -5 38 C-4.01 38 -3.02 38 -2 38 C-2.60183749 40.02045442 -3.27306096 42.02111039 -4 44 C-7.45402448 45.72701224 -11.28753873 44.64871728 -15 44 C-16.67632417 43.35800351 -18.34750513 42.70105843 -20 42 C-20.99 42.495 -20.99 42.495 -22 43 C-24.3329866 43.04022391 -26.66706666 43.04320247 -29 43 C-29.66 41.68 -30.32 40.36 -31 39 C-30 37 -30 37 -28 35 C-25.24627091 34.63066355 -22.79634339 34.81663322 -20 35 C-19.52029877 33.25014646 -19.04126076 31.50011109 -18.5625 29.75 C-18.16224609 28.28820312 -18.16224609 28.28820312 -17.75390625 26.796875 C-17.14455416 24.53627347 -16.55761745 22.27377991 -16 20 C-18.31 19.67 -20.62 19.34 -23 19 C-23.33 17.35 -23.66 15.7 -24 14 C-20.7 14.33 -17.4 14.66 -14 15 C-13.9175 13.80375 -13.835 12.6075 -13.75 11.375 C-13.20895261 7.07710244 -11.80483552 4.36580262 -9 1 C-5.81458116 -1.36337527 -3.73411878 -1.11014342 0 0 Z M-5 5 C-5.66 6.65 -6.32 8.3 -7 10 C-6.01 9.01 -5.02 8.02 -4 7 C-4.33 6.34 -4.66 5.68 -5 5 Z " fill="#162853" transform="translate(303,45)"/>
<path d="M0 0 C1.91406642 1.57242527 2.89150123 2.78300246 4 5 C4.2867649 8.29779631 4.30449169 10.39101662 2.8125 13.375 C1 15 1 15 -4 15 C-3.67 11.37 -3.34 7.74 -3 4 C-7.82442184 5.26946514 -7.82442184 5.26946514 -11 9 C-11 14.3024846 -8.56437116 17.30957808 -5.375 21.265625 C-1.90766007 25.6392015 -2.38865494 30.65612498 -3 36 C-4.08657522 39.30212861 -5.4209404 41.65323445 -8 44 C-11.00701629 45.4464129 -13.66580267 46.0242047 -17 46 C-20.43305174 44.75825788 -21.55825085 43.76302127 -23.375 40.625 C-24.07215946 37.69693028 -23.82000582 35.87002036 -23 33 C-19.535 32.505 -19.535 32.505 -16 32 C-16 34.31 -16 36.62 -16 39 C-14.68 39.33 -13.36 39.66 -12 40 C-10.03803239 38.1949898 -9.08186803 36.71814063 -8.77734375 34.046875 C-8.99552668 29.05484957 -10.2649655 26.30083271 -13.5 22.5 C-16.71561134 18.71537101 -18.03467518 15.98351442 -18.19921875 11.00390625 C-17.75431252 6.528673 -15.63805711 4.56209793 -12.375 1.6875 C-8.2336188 -0.3831906 -4.56565324 -0.96530954 0 0 Z " fill="#162853" transform="translate(120,44)"/>
<path d="M0 0 C1 1 1 1 1.34375 3.796875 C1 7 1 7 -0.96875 9.265625 C-1.8040625 9.92046875 -2.639375 10.5753125 -3.5 11.25 C-5.02745081 12.46630342 -6.53487723 13.7092966 -8 15 C-8 15.66 -8 16.32 -8 17 C-2.123526 16.71334273 1.06433135 14.08745753 5 10 C5.33 9.34 5.66 8.68 6 8 C6.99 8 7.98 8 9 8 C8.50938336 12.25201084 5.91826619 15.07351334 3 18 C-0.53557428 20.62901677 -3.57707993 21.81571166 -8 22 C-12.56521739 19.86956522 -12.56521739 19.86956522 -14 17 C-14.64609338 11.64665482 -14.36956206 8.94384293 -11.125 4.5625 C-7.6287869 0.24712587 -5.57754399 -0.2373423 0 0 Z M-5 4 C-5.66 5.32 -6.32 6.64 -7 8 C-6.01 7.34 -5.02 6.68 -4 6 C-4.33 5.34 -4.66 4.68 -5 4 Z " fill="#152752" transform="translate(396,60)"/>
</svg>
